<?xml version="1.0" encoding="UTF-8"?>
<svg id="Layer_1" data-name="Layer 1" xmlns="http://www.w3.org/2000/svg" viewBox="0 0 178.87 178.87">
  <defs>
    <style>
      .cls-1 {
        fill: #fff;
      }

      .cls-2 {
        font-size: 24.66px;
      }

      .cls-2, .cls-3 {
        font-family: Posterama2001-Regular, 'Posterama 2001';
      }

      .cls-4 {
        fill: #fdb932;
      }

      .cls-3 {
        font-size: 6.15px;
      }

      .cls-5 {
        fill: #80b241;
      }

      .cls-6 {
        fill: #719c3f;
      }
    </style>
  </defs>
  <text class="cls-3" transform="translate(46.99 50.32) rotate(-45.26)"><tspan x="0" y="0">A</tspan></text>
  <text class="cls-3" transform="translate(49.91 47.36) rotate(-40.99)"><tspan x="0" y="0">d</tspan></text>
  <text class="cls-3" transform="translate(53.31 44.4) rotate(-36.53)"><tspan x="0" y="0">u</tspan></text>
  <text class="cls-3" transform="translate(56.92 41.73) rotate(-32.21)"><tspan x="0" y="0">c</tspan></text>
  <text class="cls-3" transform="translate(60.52 39.48) rotate(-28.4)"><tspan x="0" y="0">e</tspan></text>
  <text class="cls-3" transform="translate(63.49 37.83) rotate(-24.15)"><tspan x="0" y="0">m</tspan></text>
  <text class="cls-3" transform="translate(68.2 35.77) rotate(-20.77)"><tspan x="0" y="0"> </tspan></text>
  <text class="cls-3" transform="translate(69.73 35.16) rotate(-17.81)"><tspan x="0" y="0">c</tspan></text>
  <text class="cls-3" transform="translate(73.88 33.83) rotate(-13.49)"><tspan x="0" y="0">a</tspan></text>
  <text class="cls-3" transform="translate(77.96 32.86) rotate(-9.72)"><tspan x="0" y="0">l</tspan></text>
  <text class="cls-3" transform="translate(81.23 32.28) rotate(-5.84)"><tspan x="0" y="0">d</tspan></text>
  <text class="cls-3" transform="translate(85.69 31.82) rotate(-1.43)"><tspan x="0" y="0">u</tspan></text>
  <text class="cls-3" transform="translate(90.18 31.72) rotate(2.63)"><tspan x="0" y="0">r</tspan></text>
  <text class="cls-3" transform="translate(94.02 31.88) rotate(6.59)"><tspan x="0" y="0">a</tspan></text>
  <text class="cls-3" transform="translate(98.19 32.4) rotate(9.5)"><tspan x="0" y="0"> </tspan></text>
  <text class="cls-3" transform="translate(99.83 32.67) rotate(11.16)"><tspan x="0" y="0">i</tspan></text>
  <text class="cls-3" transform="translate(101.44 32.95) rotate(14.23)"><tspan x="0" y="0">n</tspan></text>
  <text class="cls-3" transform="translate(105.82 34.1) rotate(17.32)"><tspan x="0" y="0"> </tspan></text>
  <text class="cls-3" transform="translate(107.39 34.55) rotate(20.27)"><tspan x="0" y="0">c</tspan></text>
  <text class="cls-3" transform="translate(111.48 36.06) rotate(24.59)"><tspan x="0" y="0">a</tspan></text>
  <text class="cls-3" transform="translate(115.54 37.95) rotate(28.69)"><tspan x="0" y="0">s</tspan></text>
  <text class="cls-3" transform="translate(118.57 39.6) rotate(32.1)"><tspan x="0" y="0">e</tspan></text>
  <text class="cls-3" transform="translate(121.45 41.41) rotate(35.44)"><tspan x="0" y="0">l</tspan></text>
  <text class="cls-3" transform="translate(124.18 43.35) rotate(38.78)"><tspan x="0" y="0">e</tspan></text>
  <text class="cls-3" transform="translate(126.83 45.5) rotate(41.29)"><tspan x="0" y="0"> </tspan></text>
  <text class="cls-3" transform="translate(128.09 46.57) rotate(44.17)"><tspan x="0" y="0">v</tspan></text>
  <text class="cls-3" transform="translate(131.03 49.39) rotate(48.57)"><tspan x="0" y="0">o</tspan></text>
  <text class="cls-3" transform="translate(134.23 53.02) rotate(52.97)"><tspan x="0" y="0">a</tspan></text>
  <text class="cls-3" transform="translate(136.9 56.6) rotate(57.04)"><tspan x="0" y="0">s</tspan></text>
  <text class="cls-3" transform="translate(138.83 59.58) rotate(60.58)"><tspan x="0" y="0">t</tspan></text>
  <text class="cls-3" transform="translate(140.54 62.59) rotate(64.21)"><tspan x="0" y="0">r</tspan></text>
  <text class="cls-3" transform="translate(142.2 66.04) rotate(67.82)"><tspan x="0" y="0">e</tspan></text>
  <text class="cls-3" transform="translate(143.53 69.36) rotate(70.35)"><tspan x="0" y="0">.</tspan></text>
  <text class="cls-3" transform="translate(143.99 70.66) rotate(71.88)"><tspan x="0" y="0"> </tspan></text>
  <text class="cls-3" transform="translate(144.53 72.2) rotate(74.79)"><tspan x="0" y="0">A</tspan></text>
  <text class="cls-3" transform="translate(145.63 76.21) rotate(79.11)"><tspan x="0" y="0">d</tspan></text>
  <text class="cls-3" transform="translate(146.48 80.61) rotate(83.57)"><tspan x="0" y="0">u</tspan></text>
  <text class="cls-3" transform="translate(146.98 85.07) rotate(87.87)"><tspan x="0" y="0">c</tspan></text>
  <text class="cls-3" transform="translate(147.13 89.35) rotate(91.63)"><tspan x="0" y="0">e</tspan></text>
  <text class="cls-3" transform="translate(147.07 92.74) rotate(95.82)"><tspan x="0" y="0">m</tspan></text>
  <text class="cls-3" transform="translate(146.49 97.85) rotate(99.18)"><tspan x="0" y="0"> </tspan></text>
  <text class="cls-3" transform="translate(146.27 99.47) rotate(102.13)"><tspan x="0" y="0">c</tspan></text>
  <text class="cls-3" transform="translate(145.35 103.74) rotate(106.46)"><tspan x="0" y="0">a</tspan></text>
  <text class="cls-3" transform="translate(144.16 107.73) rotate(110.2)"><tspan x="0" y="0">l</tspan></text>
  <text class="cls-3" transform="translate(143.03 110.86) rotate(114.11)"><tspan x="0" y="0">d</tspan></text>
  <text class="cls-3" transform="translate(141.19 114.97) rotate(118.6)"><tspan x="0" y="0">u</tspan></text>
  <text class="cls-3" transform="translate(139.03 118.92) rotate(122.75)"><tspan x="0" y="0">r</tspan></text>
  <text class="cls-3" transform="translate(136.96 122.14) rotate(126.71)"><tspan x="0" y="0">a</tspan></text>
  <text class="cls-3" transform="translate(134.43 125.49) rotate(129.6)"><tspan x="0" y="0"> </tspan></text>
  <text class="cls-3" transform="translate(133.37 126.77) rotate(131.24)"><tspan x="0" y="0">i</tspan></text>
  <text class="cls-3" transform="translate(132.33 128.02) rotate(134.27)"><tspan x="0" y="0">n</tspan></text>
  <text class="cls-3" transform="translate(129.14 131.24) rotate(137.33)"><tspan x="0" y="0"> </tspan></text>
  <text class="cls-3" transform="translate(127.94 132.39) rotate(140.26)"><tspan x="0" y="0">c</tspan></text>
  <text class="cls-3" transform="translate(124.6 135.17) rotate(144.52)"><tspan x="0" y="0">a</tspan></text>
  <text class="cls-3" transform="translate(120.94 137.75) rotate(148.59)"><tspan x="0" y="0">s</tspan></text>
  <text class="cls-3" transform="translate(118 139.55) rotate(152.01)"><tspan x="0" y="0">e</tspan></text>
  <text class="cls-3" transform="translate(114.99 141.15) rotate(155.36)"><tspan x="0" y="0">l</tspan></text>
  <text class="cls-3" transform="translate(111.95 142.54) rotate(158.74)"><tspan x="0" y="0">e</tspan></text>
  <text class="cls-3" transform="translate(108.73 143.77) rotate(161.3)"><tspan x="0" y="0"> </tspan></text>
  <text class="cls-3" transform="translate(107.2 144.33) rotate(164.21)"><tspan x="0" y="0">v</tspan></text>
  <text class="cls-3" transform="translate(103.29 145.46) rotate(168.66)"><tspan x="0" y="0">o</tspan></text>
  <text class="cls-3" transform="translate(98.55 146.4) rotate(173.09)"><tspan x="0" y="0">a</tspan></text>
  <text class="cls-3" transform="translate(94.1 146.92) rotate(177.14)"><tspan x="0" y="0">s</tspan></text>
  <text class="cls-3" transform="translate(90.57 147.1) rotate(-179.07)"><tspan x="0" y="0">t</tspan></text>
  <text class="cls-3" transform="translate(87.11 147.06) rotate(-175.81)"><tspan x="0" y="0">r</tspan></text>
  <text class="cls-3" transform="translate(83.27 146.78) rotate(-172.21)"><tspan x="0" y="0">e</tspan></text>
  <text class="cls-3" transform="translate(79.88 146.29) rotate(-169.69)"><tspan x="0" y="0"> </tspan></text>
  <text class="cls-3" transform="translate(78.23 145.99) rotate(-168.17)"><tspan x="0" y="0">.</tspan></text>
  <text class="cls-3" transform="translate(76.56 145.67) rotate(-165.04)"><tspan x="0" y="0">A</tspan></text>
  <text class="cls-3" transform="translate(72.53 144.6) rotate(-160.71)"><tspan x="0" y="0">d</tspan></text>
  <text class="cls-3" transform="translate(68.28 143.12) rotate(-156.2)"><tspan x="0" y="0">u</tspan></text>
  <text class="cls-3" transform="translate(64.18 141.31) rotate(-151.86)"><tspan x="0" y="0">c</tspan></text>
  <text class="cls-3" transform="translate(60.44 139.29) rotate(-148.05)"><tspan x="0" y="0">e</tspan></text>
  <text class="cls-3" transform="translate(57.52 137.52) rotate(-143.81)"><tspan x="0" y="0">m</tspan></text>
  <text class="cls-3" transform="translate(53.41 134.44) rotate(-140.47)"><tspan x="0" y="0"> </tspan></text>
  <text class="cls-3" transform="translate(52.13 133.43) rotate(-137.56)"><tspan x="0" y="0">c</tspan></text>
  <text class="cls-3" transform="translate(48.91 130.49) rotate(-133.29)"><tspan x="0" y="0">a</tspan></text>
  <text class="cls-3" transform="translate(46.05 127.43) rotate(-129.57)"><tspan x="0" y="0">l</tspan></text>
  <text class="cls-3" transform="translate(43.92 124.89) rotate(-125.72)"><tspan x="0" y="0">d</tspan></text>
  <text class="cls-3" transform="translate(41.28 121.23) rotate(-121.24)"><tspan x="0" y="0">u</tspan></text>
  <text class="cls-3" transform="translate(38.96 117.38) rotate(-117.1)"><tspan x="0" y="0">r</tspan></text>
  <text class="cls-3" transform="translate(37.2 113.97) rotate(-113.1)"><tspan x="0" y="0">a</tspan></text>
  <text class="cls-3" transform="translate(35.59 110.11) rotate(-110.2)"><tspan x="0" y="0"> </tspan></text>
  <text class="cls-3" transform="translate(35.02 108.54) rotate(-108.52)"><tspan x="0" y="0">i</tspan></text>
  <text class="cls-3" transform="translate(34.45 107) rotate(-105.43)"><tspan x="0" y="0">n</tspan></text>
  <text class="cls-3" transform="translate(33.29 102.62) rotate(-102.35)"><tspan x="0" y="0"> </tspan></text>
  <text class="cls-3" transform="translate(32.9 101.03) rotate(-99.41)"><tspan x="0" y="0">c</tspan></text>
  <text class="cls-3" transform="translate(32.19 96.73) rotate(-95.12)"><tspan x="0" y="0">a</tspan></text>
  <text class="cls-3" transform="translate(31.82 92.28) rotate(-91.09)"><tspan x="0" y="0">s</tspan></text>
  <text class="cls-3" transform="translate(31.75 88.82) rotate(-87.73)"><tspan x="0" y="0">e</tspan></text>
  <text class="cls-3" transform="translate(31.88 85.41) rotate(-84.41)"><tspan x="0" y="0">l</tspan></text>
  <text class="cls-3" transform="translate(32.2 82.1) rotate(-81.06)"><tspan x="0" y="0">e</tspan></text>
  <text class="cls-3" transform="translate(32.76 78.7) rotate(-78.53)"><tspan x="0" y="0"> </tspan></text>
  <text class="cls-3" transform="translate(33.05 77.09) rotate(-75.62)"><tspan x="0" y="0">v</tspan></text>
  <text class="cls-3" transform="translate(34.04 73.14) rotate(-71.15)"><tspan x="0" y="0">o</tspan></text>
  <text class="cls-3" transform="translate(35.61 68.57) rotate(-66.7)"><tspan x="0" y="0">a</tspan></text>
  <text class="cls-3" transform="translate(37.41 64.46) rotate(-62.6)"><tspan x="0" y="0">s</tspan></text>
  <text class="cls-3" transform="translate(39.03 61.32) rotate(-59.06)"><tspan x="0" y="0">t</tspan></text>
  <text class="cls-3" transform="translate(40.81 58.35) rotate(-55.44)"><tspan x="0" y="0">r</tspan></text>
  <text class="cls-3" transform="translate(43 55.17) rotate(-51.84)"><tspan x="0" y="0">e</tspan></text>
  <text class="cls-3" transform="translate(45.21 52.4) rotate(-49.36)"><tspan x="0" y="0">.</tspan></text>
  <text class="cls-2" transform="translate(84.32 158.52) rotate(-167.16)"><tspan x="0" y="0">M</tspan></text>
  <text class="cls-2" transform="translate(65 153.99) rotate(-152.16)"><tspan x="0" y="0">a</tspan></text>
  <text class="cls-2" transform="translate(50.74 146.46) rotate(-139.4)"><tspan x="0" y="0">b</tspan></text>
  <text class="cls-2" transform="translate(39.69 136.62) rotate(-130.69)"><tspan x="0" y="0">i</tspan></text>
  <text class="cls-2" transform="translate(35.39 132.07) rotate(-122.49)"><tspan x="0" y="0">s</tspan></text>
  <text class="cls-2" transform="translate(28.36 120.64) rotate(-114.29)"><tspan x="0" y="0"> </tspan></text>
  <text class="cls-2" transform="translate(24.97 115.52) rotate(-102.13)"><tspan x="0" y="0">W</tspan></text>
  <text class="cls-2" transform="translate(20.33 93.51) rotate(-85.13)"><tspan x="0" y="0">O</tspan></text>
  <text class="cls-2" transform="translate(21.8 74.53) rotate(-69.25)"><tspan x="0" y="0">O</tspan></text>
  <text class="cls-2" transform="translate(28.55 56.68) rotate(-54.09)"><tspan x="0" y="0">D</tspan></text>
  <text class="cls-2" transform="translate(39.21 42.71) rotate(-44.25)"><tspan x="0" y="0"> </tspan></text>
  <text class="cls-2" transform="translate(43.45 38.17) rotate(-36.15)"><tspan x="0" y="0">E</tspan></text>
  <text class="cls-2" transform="translate(54 30.28) rotate(-24.59)"><tspan x="0" y="0">K</tspan></text>
  <text class="cls-2" transform="translate(66.49 24.07) rotate(-10.96)"><tspan x="0" y="0">O</tspan></text>
  <text class="cls-2" transform="translate(85.49 20.97) rotate(-.93)"><tspan x="0" y="0"> </tspan></text>
  <text class="cls-2" transform="translate(91.62 20.15) rotate(10.4)"><tspan x="0" y="0">M</tspan></text>
  <text class="cls-2" transform="translate(111.11 23.85) rotate(25.4)"><tspan x="0" y="0">A</tspan></text>
  <text class="cls-2" transform="translate(125.68 30.76) rotate(38.18)"><tspan x="0" y="0">B</tspan></text>
  <text class="cls-2" transform="translate(137.14 40.13) rotate(46.9)"><tspan x="0" y="0">I</tspan></text>
  <text class="cls-2" transform="translate(141.62 44.49) rotate(55.08)"><tspan x="0" y="0">S</tspan></text>
  <text class="cls-2" transform="translate(149.13 55.61) rotate(63.27)"><tspan x="0" y="0"> </tspan></text>
  <text class="cls-2" transform="translate(152.74 60.6) rotate(75.44)"><tspan x="0" y="0">W</tspan></text>
  <text class="cls-2" transform="translate(158.3 82.36) rotate(92.45)"><tspan x="0" y="0">O</tspan></text>
  <text class="cls-2" transform="translate(157.64 101.4) rotate(108.3)"><tspan x="0" y="0">O</tspan></text>
  <text class="cls-2" transform="translate(151.66 119.52) rotate(123.48)"><tspan x="0" y="0">D</tspan></text>
  <text class="cls-2" transform="translate(141.6 133.94) rotate(133.33)"><tspan x="0" y="0"> </tspan></text>
  <text class="cls-2" transform="translate(137.54 138.67) rotate(141.45)"><tspan x="0" y="0">E</tspan></text>
  <text class="cls-2" transform="translate(127.35 146.98) rotate(152.96)"><tspan x="0" y="0">K</tspan></text>
  <text class="cls-2" transform="translate(115.14 153.72) rotate(166.6)"><tspan x="0" y="0">O</tspan></text>
  <text class="cls-2" transform="translate(96.24 157.66) rotate(177.19)"><tspan x="0" y="0"> </tspan></text>
  <g>
    <path class="cls-5" d="M91.46,126.53c3.79-9.81,13.75-14.64,21.87-15.91-11.89,6.06-17.82,12.5-22.03,25.61l2.42,.59c.64-2.42,1.56-4.77,2.75-6.98,8.29,2.72,15.85,1.89,22.01-4.59,7.65-9.37,5.11-19.54,1.89-29.76-3.06,9.84-20.11,8.35-26.5,19.88-1.35,2.43-2.48,4.83-3.39,7.26"/>
    <path class="cls-6" d="M94.46,115.7c8.22-10.22,23.61-9.81,25.92-20.19-3.56,7.62-15.37,4.74-23.46,11.26-4.69,3.96-7.57,8.87-6.44,15.88,.91-2.43,2.28-4.73,3.97-6.95h0Z"/>
    <path class="cls-5" d="M85.91,126.53c-3.79-9.81-13.76-14.64-21.87-15.91,11.89,6.06,17.83,12.5,22.03,25.61l-2.42,.59c-.64-2.42-1.56-4.77-2.75-6.98-8.29,2.72-15.85,1.89-22.01-4.59-7.65-9.37-5.11-19.54-1.89-29.76,3.06,9.84,20.11,8.35,26.5,19.88,1.35,2.43,2.48,4.83,3.39,7.26"/>
    <path class="cls-6" d="M82.91,115.7c-8.22-10.22-23.61-9.81-25.92-20.19,3.56,7.62,15.37,4.74,23.46,11.26,4.69,3.96,7.57,8.87,6.44,15.88-.91-2.43-2.28-4.73-3.97-6.95h0Z"/>
    <path class="cls-4" d="M89.05,87.85c-9.48,0-17.2-7.71-17.2-17.2s7.71-17.2,17.2-17.2,17.2,7.72,17.2,17.2-7.72,17.2-17.2,17.2Z"/>
    <path class="cls-4" d="M89.05,50.25c-.77,0-1.4-.63-1.4-1.4v-8.28c0-.77,.63-1.4,1.4-1.4s1.4,.63,1.4,1.4v8.28c0,.77-.63,1.4-1.4,1.4Z"/>
    <path class="cls-4" d="M89.05,102.14c-.77,0-1.4-.63-1.4-1.4v-8.28c0-.77,.63-1.4,1.4-1.4s1.4,.63,1.4,1.4v8.28c0,.77-.62,1.4-1.4,1.4h0Z"/>
    <path class="cls-4" d="M67.25,72.05h-8.28c-.77,0-1.4-.63-1.4-1.4s.63-1.4,1.4-1.4h8.28c.77,0,1.4,.63,1.4,1.4,0,.77-.63,1.4-1.4,1.4h0Z"/>
    <path class="cls-4" d="M119.14,72.05h-8.28c-.77,0-1.4-.63-1.4-1.4s.63-1.4,1.4-1.4h8.28c.77,0,1.4,.63,1.4,1.4,0,.77-.63,1.4-1.4,1.4h0Z"/>
    <path class="cls-4" d="M104.47,56.63c-.77,0-1.4-.63-1.4-1.4,0-.37,.15-.72,.41-.99l5.85-5.85c.53-.56,1.42-.58,1.98-.04s.58,1.42,.04,1.98c-.01,.01-.03,.03-.04,.04l-5.85,5.86c-.26,.26-.62,.41-.99,.4h0Z"/>
    <path class="cls-4" d="M67.78,93.33c-.77,0-1.4-.63-1.4-1.4,0-.37,.15-.73,.41-.99l5.85-5.85c.55-.55,1.43-.54,1.98,0,.54,.55,.54,1.43,0,1.97l-5.85,5.85c-.26,.27-.62,.41-.99,.41h0Z"/>
    <path class="cls-4" d="M73.63,56.63c-.37,0-.73-.15-.99-.41l-5.85-5.85c-.54-.55-.54-1.43,0-1.98,.55-.54,1.43-.54,1.97,0l5.85,5.85c.54,.55,.54,1.44,0,1.98-.26,.26-.62,.41-.98,.41h0Z"/>
    <path class="cls-4" d="M110.32,93.33c-.37,0-.73-.15-.99-.41l-5.85-5.85c-.55-.55-.55-1.43,0-1.98,.55-.55,1.43-.55,1.98,0h0l5.85,5.85c.55,.54,.55,1.43,0,1.98-.26,.27-.62,.42-1,.41h0Z"/>
    <path class="cls-4" d="M80.71,51.91c-.57,0-1.08-.34-1.29-.86l-1.6-3.86c-.3-.71,.04-1.53,.76-1.83,.71-.3,1.53,.04,1.83,.76h0l1.6,3.86c.3,.71-.04,1.53-.76,1.83-.17,.07-.35,.11-.54,.11h0Z"/>
    <path class="cls-4" d="M99,96.06c-.57,0-1.08-.34-1.29-.86l-1.6-3.86c-.3-.71,.04-1.53,.76-1.83s1.53,.04,1.83,.76h0l1.6,3.86c.29,.72-.05,1.53-.76,1.83-.17,.07-.35,.11-.53,.11h0Z"/>
    <path class="cls-4" d="M97.4,51.91c-.77,0-1.4-.63-1.4-1.4,0-.18,.04-.37,.11-.54l1.6-3.86c.3-.71,1.11-1.05,1.83-.76,.71,.3,1.05,1.11,.76,1.83l-1.6,3.86c-.22,.52-.73,.86-1.29,.86h0Z"/>
    <path class="cls-4" d="M79.11,96.06c-.77,0-1.4-.63-1.4-1.4,0-.18,.04-.36,.11-.53l1.6-3.86c.3-.71,1.11-1.05,1.83-.76s1.05,1.11,.76,1.83h0l-1.6,3.86c-.22,.52-.73,.86-1.29,.86h0Z"/>
    <path class="cls-4" d="M65.05,82c-.77,0-1.4-.63-1.4-1.4,0-.57,.34-1.08,.86-1.29l3.86-1.6c.71-.3,1.53,.04,1.83,.76s-.04,1.53-.76,1.83h0l-3.86,1.6c-.17,.07-.35,.11-.53,.11h0Z"/>
    <path class="cls-4" d="M109.2,63.71c-.77,0-1.4-.62-1.4-1.4,0-.57,.34-1.08,.86-1.3l3.86-1.6c.71-.3,1.53,.04,1.83,.76s-.04,1.53-.76,1.83h0l-3.86,1.6c-.17,.07-.35,.11-.53,.11h0Z"/>
    <path class="cls-4" d="M68.91,63.71c-.18,0-.36-.04-.53-.11l-3.86-1.6c-.71-.3-1.05-1.11-.76-1.83,.3-.71,1.11-1.05,1.83-.76l3.86,1.6c.71,.3,1.05,1.11,.76,1.83-.22,.52-.73,.86-1.29,.86h0Z"/>
    <path class="cls-4" d="M113.06,82c-.18,0-.37-.04-.53-.11l-3.86-1.6c-.71-.3-1.05-1.11-.76-1.83,.3-.71,1.11-1.05,1.83-.76l3.86,1.6c.71,.3,1.05,1.11,.76,1.83-.22,.52-.73,.86-1.29,.86h0Z"/>
    <path class="cls-1" d="M97.94,72.05c-.77,0-1.4-.63-1.4-1.4,0-4.13-3.35-7.48-7.49-7.49-.77,0-1.4-.63-1.4-1.4s.63-1.4,1.4-1.4h0c5.67,0,10.29,4.62,10.29,10.29,0,.77-.63,1.4-1.4,1.4h0Z"/>
  </g>
</svg>